<?xml version="1.0" encoding="iso-8859-1"?><!-- Generator: Adobe Illustrator 23.0.1, SVG Export Plug-In . SVG Version: 6.00 Build 0)  --><svg xmlns="http://www.w3.org/2000/svg" xmlns:xlink="http://www.w3.org/1999/xlink" viewBox="0 0 64 64" width="128px" height="128px"><radialGradient id="SVGID_1__118955" cx="32" cy="32" r="33.0021" gradientUnits="userSpaceOnUse" spreadMethod="reflect"><stop offset="0" style="stop-color:#EFDCB1"/><stop offset="1.082549e-07" style="stop-color:#F2E0BB"/><stop offset="0.0105" style="stop-color:#F2E0BC"/><stop offset="0.3623" style="stop-color:#F9EDD2"/><stop offset="0.6986" style="stop-color:#FEF4DF"/><stop offset="1" style="stop-color:#FFF7E4"/></radialGradient><path style="fill:url(#SVGID_1__118955);" d="M55.454,45.668c0.5,0.898,1.504,1.337,2.532,1.332c1.75-0.008,3.153,1.483,3.002,3.262  C60.855,51.838,59.434,53,57.852,53L48,53v1H26h-8H7c-1.71,0-3.086-1.431-2.996-3.161C4.089,49.216,5.545,48,7.17,48L8,48  c1.215,0,2.176-1.083,1.973-2.336C9.813,44.681,8.889,44,7.893,44L3,44c-1.71,0-3.086-1.431-2.996-3.161  C0.089,39.216,1.545,38,3.17,38l6.33,0c1.381,0,2.5-1.119,2.5-2.5v0c0-1.381-1.119-2.5-2.5-2.5h0C8.119,33,7,31.881,7,30.5v0  C7,29.119,8.119,28,9.5,28H18v-7h-7.5c-1.995,0-3.601-1.67-3.495-3.688C7.104,15.419,8.803,14,10.698,14L18,14v-4h24h6h8.5  c1.995,0,3.601,1.67,3.495,3.688C59.896,15.581,58.197,17,56.302,17L53.5,17c-1.995,0-3.601,1.67-3.495,3.688  C50.104,22.581,51.803,24,53.698,24L56,24c1.777,0,3.194,1.546,2.978,3.366c-0.179,1.509-1.546,2.572-3.064,2.635  c-1.197,0.05-2.122,1.153-1.874,2.406C54.228,33.355,55.123,34,56.089,34H60.5c1.995,0,3.601,1.67,3.495,3.688  C63.896,39.581,62.197,41,60.302,41L58,41C55.808,41,54.166,43.35,55.454,45.668z M2.5,33L2.5,33C3.881,33,5,31.881,5,30.5v0  C5,29.119,3.881,28,2.5,28h0C1.119,28,0,29.119,0,30.5v0C0,31.881,1.119,33,2.5,33z"/><g><linearGradient id="SVGID_2__118955" gradientUnits="userSpaceOnUse" x1="33" y1="58" x2="33" y2="6" spreadMethod="reflect"><stop offset="0" style="stop-color:#41BFEC"/><stop offset="0.2322" style="stop-color:#4CC5EF"/><stop offset="0.6442" style="stop-color:#6BD4F6"/><stop offset="1" style="stop-color:#8AE4FD"/></linearGradient><path style="fill:url(#SVGID_2__118955);" d="M50,58H16c-1.657,0-3-1.343-3-3V9c0-1.657,1.343-3,3-3h20.757   c0.796,0,1.559,0.316,2.121,0.879l13.243,13.243C52.684,20.684,53,21.447,53,22.243V55C53,56.657,51.657,58,50,58z"/></g><g><linearGradient id="SVGID_3__118955" gradientUnits="userSpaceOnUse" x1="38.8787" y1="20.1213" x2="46.4537" y2="12.5463" spreadMethod="reflect"><stop offset="0" style="stop-color:#C6EFFD"/><stop offset="0.375" style="stop-color:#B7ECFD"/><stop offset="1" style="stop-color:#95E6FD"/></linearGradient><path style="fill:url(#SVGID_3__118955);" d="M52.121,20.122L38.878,6.879c-0.255-0.255-0.556-0.452-0.878-0.6V18c0,1.657,1.343,3,3,3   h11.721C52.574,20.678,52.377,20.377,52.121,20.122z"/></g><linearGradient id="SVGID_4__118955" gradientUnits="userSpaceOnUse" x1="45.5" y1="24.0833" x2="45.5" y2="18.0833" spreadMethod="reflect"><stop offset="1.082549e-07" style="stop-color:#42C6EE"/><stop offset="0.4801" style="stop-color:#3BC3ED"/><stop offset="1" style="stop-color:#2EBEEA"/></linearGradient><path style="fill:url(#SVGID_4__118955);" d="M41,21c-1.657,0-3-1.343-3-3v3c0,1.657,1.343,3,3,3h12v-1.757  c0-0.434-0.102-0.855-0.279-1.243H41z"/><path style="fill:#F1FCFF;" d="M32,22H21c-1.105,0-2-0.895-2-2v0c0-1.105,0.895-2,2-2h11c1.105,0,2,0.895,2,2v0  C34,21.105,33.105,22,32,22z"/><path style="fill:#F1FCFF;" d="M38,49H21c-1.105,0-2-0.895-2-2v0c0-1.105,0.895-2,2-2h17c1.105,0,2,0.895,2,2v0  C40,48.105,39.105,49,38,49z"/><g><path style="fill:#F1FCFF;" d="M37,37h9c1.105,0,2,0.895,2,2v0c0,1.105-0.895,2-2,2h-9c-1.105,0-2-0.895-2-2v0   C35,37.895,35.895,37,37,37z"/><path style="fill:#F1FCFF;" d="M21,37h9c1.105,0,2,0.895,2,2v0c0,1.105-0.895,2-2,2h-9c-1.105,0-2-0.895-2-2v0   C19,37.895,19.895,37,21,37z"/></g><path style="fill:#F1FCFF;" d="M21,29h16c1.105,0,2,0.895,2,2v0c0,1.105-0.895,2-2,2H21c-1.105,0-2-0.895-2-2v0  C19,29.895,19.895,29,21,29z"/><path style="fill:#F1FCFF;" d="M44,29h2c1.105,0,2,0.895,2,2v0c0,1.105-0.895,2-2,2h-2c-1.105,0-2-0.895-2-2v0  C42,29.895,42.895,29,44,29z"/></svg>